<svg width="48" height="48" viewBox="0 0 48 48" fill="none" xmlns="http://www.w3.org/2000/svg">
<g clip-path="url(#clip0_14518_10971)">
<path d="M42 31C38.6867 31 36 33.6867 36 37C36 40.3133 38.6867 43 42 43C45.3133 43 48 40.3133 48 37C48 33.6867 45.3133 31 42 31Z" fill="#634CFF"/>
<path d="M12 43H0V19C0 10.73 6.73 4 15 4C23.27 4 30 10.73 30 19V28H18V19C18 17.3467 16.6533 16 15 16C13.3467 16 12 17.3467 12 19V43Z" fill="#634CFF"/>
<path d="M30 43H18V19C18 10.73 24.73 4 33 4C41.27 4 48 10.73 48 19V28H36V19C36 17.3467 34.6533 16 33 16C31.3467 16 30 17.3467 30 19V43Z" fill="#634CFF"/>
</g>
<defs>
<clipPath id="clip0_14518_10971">
<rect width="48" height="39" fill="white" transform="translate(0 4)"/>
</clipPath>
</defs>
</svg>
