<svg width="110" height="83" viewBox="0 0 110 83" fill="none" xmlns="http://www.w3.org/2000/svg">
<path d="M103.797 68.7676H106.513V71.978H109.291V74.2201H106.513V79.1147C106.513 79.6761 106.628 80.0866 106.86 80.3462C107.098 80.6058 107.477 80.7357 107.997 80.7357C108.32 80.7357 108.716 80.669 109.186 80.5357V82.7146C109.011 82.7918 108.737 82.8584 108.365 82.9146C107.993 82.9707 107.635 82.9988 107.291 82.9988C106.063 82.9988 105.172 82.6549 104.618 81.9672C104.07 81.2795 103.797 80.2866 103.797 78.9884V74.2201H101.797V71.978H103.797V68.7676Z" fill="black"/>
<path d="M92.1443 78.2745C92.2285 79.1166 92.5373 79.7797 93.0706 80.2639C93.6039 80.7481 94.3372 80.9902 95.2705 80.9902C95.9161 80.9902 96.4845 80.8674 96.9758 80.6218C97.467 80.3692 97.8459 80.0253 98.1126 79.5903H100.639C100.246 80.5797 99.5652 81.3972 98.5968 82.0428C97.6354 82.6814 96.5266 83.0007 95.2705 83.0007C93.4741 83.0007 92.0566 82.4709 91.018 81.4113C89.9865 80.3516 89.4707 78.9973 89.4707 77.3482C89.4707 75.7202 90.0005 74.3764 91.0601 73.3168C92.1198 72.2501 93.4776 71.7168 95.1337 71.7168C96.8038 71.7168 98.1617 72.2466 99.2073 73.3062C100.26 74.3658 100.786 75.7272 100.786 77.3903V78.2745H92.1443ZM95.1863 73.6641C94.3372 73.6641 93.6425 73.9167 93.1022 74.422C92.5689 74.9202 92.2426 75.6079 92.1233 76.4851H98.1968C98.1126 75.636 97.8038 74.9553 97.2705 74.443C96.7372 73.9238 96.0425 73.6641 95.1863 73.6641Z" fill="black"/>
<path d="M84.4512 82.7364V67H87.1669V82.7364H84.4512Z" fill="black"/>
<path d="M78.7656 82.7364V67H81.4813V82.7364H78.7656Z" fill="black"/>
<path d="M75.7876 71.9799V82.7375H73.1877V80.885C72.8439 81.4885 72.3246 81.9937 71.6299 82.4007C70.9351 82.8007 70.1457 83.0007 69.2615 83.0007C68.2229 83.0007 67.2861 82.7481 66.4511 82.2428C65.616 81.7376 64.9704 81.0569 64.5143 80.2008C64.0581 79.3447 63.8301 78.4008 63.8301 77.3693C63.8301 76.3377 64.0581 75.3939 64.5143 74.5378C64.9704 73.6746 65.616 72.9904 66.4511 72.4852C67.2861 71.9729 68.2229 71.7168 69.2615 71.7168C70.1738 71.7168 70.9773 71.9203 71.672 72.3273C72.3737 72.7273 72.8649 73.229 73.1456 73.8325V71.9799H75.7876ZM67.451 74.9483C66.8475 75.6079 66.5458 76.4149 66.5458 77.3693C66.5458 78.3236 66.844 79.1271 67.4405 79.7797C68.044 80.4323 68.8229 80.7587 69.7773 80.7587C70.7106 80.7587 71.493 80.4464 72.1246 79.8218C72.7561 79.1973 73.0719 78.3798 73.0719 77.3693C73.0719 76.3588 72.7526 75.5377 72.1141 74.9062C71.4825 74.2746 70.7036 73.9588 69.7773 73.9588C68.8299 73.9588 68.0545 74.2887 67.451 74.9483Z" fill="black"/>
<path d="M57.7779 78.537L60.7989 67.6426H63.5988L58.9674 82.7369H56.7464L52.957 71.3372L49.1571 82.7369H46.9361L42.3047 67.6426H45.1046L48.1256 78.537L51.8518 67.6426H54.0517L57.7779 78.537Z" fill="black"/>
<path d="M33.1899 82.1902C32.2776 82.7305 31.225 83.0007 30.0321 83.0007C28.8391 83.0007 27.7865 82.7305 26.8742 82.1902C25.962 81.6499 25.2743 80.9586 24.8111 80.1166C24.355 79.2675 24.127 78.3517 24.127 77.3693C24.127 76.6325 24.2638 75.9272 24.5375 75.2535C24.8111 74.5729 25.1936 73.9694 25.6848 73.4431C26.176 72.9168 26.7971 72.4992 27.5479 72.1905C28.3058 71.8747 29.1338 71.7168 30.0321 71.7168C30.9303 71.7168 31.7548 71.8747 32.5057 72.1905C33.2635 72.4992 33.8881 72.9168 34.3793 73.4431C34.8705 73.9694 35.253 74.5729 35.5266 75.2535C35.8003 75.9272 35.9372 76.6325 35.9372 77.3693C35.9372 78.3517 35.7056 79.2675 35.2424 80.1166C34.7863 80.9586 34.1021 81.6499 33.1899 82.1902ZM31.7899 74.4746C31.2917 74.1518 30.7057 73.9904 30.0321 73.9904C29.3584 73.9904 28.7689 74.1518 28.2637 74.4746C27.7654 74.7974 27.3935 75.2114 27.1479 75.7167C26.9023 76.2219 26.7795 76.7728 26.7795 77.3693C26.7795 78.2956 27.0707 79.0885 27.6532 79.7482C28.2356 80.4078 29.0286 80.7376 30.0321 80.7376C31.0355 80.7376 31.8285 80.4078 32.4109 79.7482C32.9934 79.0885 33.2846 78.2956 33.2846 77.3693C33.2846 76.7728 33.1618 76.2219 32.9162 75.7167C32.6706 75.2114 32.2952 74.7974 31.7899 74.4746Z" fill="black"/>
<path d="M13.8338 78.2745C13.918 79.1166 14.2267 79.7797 14.7601 80.2639C15.2934 80.7481 16.0267 80.9902 16.96 80.9902C17.6056 80.9902 18.174 80.8674 18.6652 80.6218C19.1564 80.3692 19.5354 80.0253 19.802 79.5903H22.3283C21.9353 80.5797 21.2546 81.3972 20.2862 82.0428C19.3248 82.6814 18.2161 83.0007 16.96 83.0007C15.1636 83.0007 13.7461 82.4709 12.7075 81.4113C11.6759 80.3516 11.1602 78.9973 11.1602 77.3482C11.1602 75.7202 11.69 74.3764 12.7496 73.3168C13.8092 72.2501 15.1671 71.7168 16.8232 71.7168C18.4933 71.7168 19.8511 72.2466 20.8967 73.3062C21.9493 74.3658 22.4756 75.7272 22.4756 77.3903V78.2745H13.8338ZM16.8758 73.6641C16.0267 73.6641 15.332 73.9167 14.7916 74.422C14.2583 74.9202 13.932 75.6079 13.8127 76.4851H19.8862C19.802 75.636 19.4933 74.9553 18.9599 74.443C18.4266 73.9238 17.7319 73.6641 16.8758 73.6641Z" fill="black"/>
<path d="M0 67.6426H2.79992V80.2843H9.67342V82.7369H0V67.6426Z" fill="black"/>
<path d="M13.0909 30.5455V17.4545V0H0V17.4545V30.5455V34.9091V48H13.0909H30.5455V34.9091H13.0909V30.5455Z" fill="#634CFF"/>
<path d="M43.6369 0H34.9096H17.4551V13.0909H34.9096V17.4545V21.8182V34.9091V43.6364V48H48.0005V43.6364V34.9091V21.8182V17.4545V0H43.6369Z" fill="#634CFF"/>
<path d="M24.0005 30.546C27.6155 30.546 30.546 27.6155 30.546 24.0005C30.546 20.3856 27.6155 17.4551 24.0005 17.4551C20.3856 17.4551 17.4551 20.3856 17.4551 24.0005C17.4551 27.6155 20.3856 30.546 24.0005 30.546Z" fill="#634CFF"/>
</svg>
