<svg width="16" height="16" viewBox="0 0 16 16" fill="none" xmlns="http://www.w3.org/2000/svg">
<path d="M8.00001 14.6673C4.31801 14.6673 1.33334 11.6827 1.33334 8.00065C1.33334 4.31865 4.31801 1.33398 8.00001 1.33398C11.682 1.33398 14.6667 4.31865 14.6667 8.00065C14.6667 11.6827 11.682 14.6673 8.00001 14.6673ZM6.47334 13.112C5.81562 11.7169 5.43459 10.2075 5.35134 8.66732H2.70801C2.83773 9.69325 3.26262 10.6594 3.93106 11.4485C4.59949 12.2375 5.48269 12.8154 6.47334 13.112ZM6.68668 8.66732C6.78734 10.2933 7.25201 11.8207 8.00001 13.1687C8.76822 11.785 9.21697 10.247 9.31334 8.66732H6.68668ZM13.292 8.66732H10.6487C10.5654 10.2075 10.1844 11.7169 9.52668 13.112C10.5173 12.8154 11.4005 12.2375 12.069 11.4485C12.7374 10.6594 13.1623 9.69325 13.292 8.66732ZM2.70801 7.33399H5.35134C5.43459 5.79384 5.81562 4.28444 6.47334 2.88932C5.48269 3.1859 4.59949 3.76382 3.93106 4.55285C3.26262 5.34188 2.83773 6.30805 2.70801 7.33399ZM6.68734 7.33399H9.31268C9.21651 5.75438 8.76799 4.21634 8.00001 2.83265C7.2318 4.21628 6.78305 5.75433 6.68668 7.33399H6.68734ZM9.52668 2.88932C10.1844 4.28444 10.5654 5.79384 10.6487 7.33399H13.292C13.1623 6.30805 12.7374 5.34188 12.069 4.55285C11.4005 3.76382 10.5173 3.1859 9.52668 2.88932Z"/>
</svg>
