<svg width="20" height="20" viewBox="0 0 20 20" fill="none" xmlns="http://www.w3.org/2000/svg">
<g id="global-line 2">
<path id="Vector" d="M10 18.3332C5.3975 18.3332 1.66667 14.6023 1.66667 9.99984C1.66667 5.39734 5.3975 1.6665 10 1.6665C14.6025 1.6665 18.3333 5.39734 18.3333 9.99984C18.3333 14.6023 14.6025 18.3332 10 18.3332ZM8.09167 16.389C7.26951 14.6451 6.79323 12.7583 6.68917 10.8332H3.385C3.54716 12.1156 4.07827 13.3233 4.91381 14.3096C5.74935 15.2959 6.85335 16.0183 8.09167 16.389ZM8.35833 10.8332C8.48417 12.8657 9.065 14.7748 10 16.4598C10.9603 14.7303 11.5212 12.8077 11.6417 10.8332H8.35833ZM16.615 10.8332H13.3108C13.2068 12.7583 12.7305 14.6451 11.9083 16.389C13.1467 16.0183 14.2507 15.2959 15.0862 14.3096C15.9217 13.3233 16.4528 12.1156 16.615 10.8332ZM3.385 9.1665H6.68917C6.79323 7.24133 7.26951 5.35458 8.09167 3.61067C6.85335 3.9814 5.74935 4.7038 4.91381 5.69008C4.07827 6.67637 3.54716 7.88409 3.385 9.1665ZM8.35917 9.1665H11.6408C11.5206 7.192 10.96 5.26945 10 3.53984C9.03973 5.26938 8.4788 7.19194 8.35833 9.1665H8.35917ZM11.9083 3.61067C12.7305 5.35458 13.2068 7.24133 13.3108 9.1665H16.615C16.4528 7.88409 15.9217 6.67637 15.0862 5.69008C14.2507 4.7038 13.1467 3.9814 11.9083 3.61067Z" fill="black"/>
</g>
</svg>
