<svg width="24" height="24" viewBox="0 0 24 24" fill="black" xmlns="http://www.w3.org/2000/svg">
<path d="M20.008 1C20.556 1 21 1.445 21 1.993V8.41421H19V3H3V16.999L13 7L14.5 8.5L15.5 9.5L13 9.829L5.827 17H9V19H1.992C1.72881 18.9997 1.4765 18.895 1.29049 18.7088C1.10448 18.5226 1 18.2702 1 18.007V1.993C1.00183 1.73038 1.1069 1.47902 1.29251 1.29322C1.47813 1.10742 1.72938 1.00209 1.992 1H20.008ZM7 5C7.53043 5 8.03914 5.21071 8.41421 5.58579C8.78929 5.96086 9 6.46957 9 7C9 7.53043 8.78929 8.03914 8.41421 8.41421C8.03914 8.78929 7.53043 9 7 9C6.46957 9 5.96086 8.78929 5.58579 8.41421C5.21071 8.03914 5 7.53043 5 7C5 6.46957 5.21071 5.96086 5.58579 5.58579C5.96086 5.21071 6.46957 5 7 5Z" fill="black"/>
<path d="M16.5 10C12.92 10 10 12.92 10 16.5C10 20.08 12.92 23 16.5 23C20.08 23 23 20.08 23 16.5C23 12.92 20.08 10 16.5 10ZM21.47 15.91H18.87C18.82 14.5 18.58 13.19 18.17 12.19C18.1 12.01 18.03 11.86 17.95 11.71C19.83 12.28 21.23 13.91 21.46 15.91H21.47ZM16.51 21.5C16.51 21.5 16.17 21.42 15.76 20.43C15.4 19.55 15.19 18.36 15.13 17.08H17.87C17.82 18.35 17.6 19.55 17.24 20.43C16.84 21.42 16.5 21.5 16.5 21.5H16.51ZM15.14 15.91C15.19 14.64 15.41 13.44 15.77 12.56C16.17 11.57 16.51 11.49 16.51 11.49C16.51 11.49 16.85 11.57 17.26 12.56C17.62 13.44 17.83 14.63 17.89 15.91H15.15H15.14ZM15.06 11.71C14.99 11.85 14.91 12.01 14.84 12.18C14.43 13.18 14.19 14.49 14.14 15.9H11.53C11.77 13.9 13.17 12.27 15.04 11.7L15.06 11.71ZM11.53 17.09H14.13C14.18 18.5 14.42 19.81 14.83 20.81C14.9 20.99 14.97 21.14 15.05 21.29C13.17 20.72 11.77 19.09 11.54 17.09H11.53ZM17.95 21.29C18.02 21.15 18.1 20.99 18.17 20.81C18.58 19.81 18.82 18.5 18.87 17.09H21.47C21.23 19.09 19.83 20.72 17.96 21.29H17.95Z" />
</svg>
