<svg width="21" height="24" viewBox="0 0 21 24" fill="none" xmlns="http://www.w3.org/2000/svg">
<path d="M20.4531 6.91421C20.4531 6.61636 20.2978 6.3413 20.0452 6.19238L10.8606 0.775756C10.6089 0.626831 10.2966 0.626831 10.0448 0.775756L0.861012 6.19238C0.608473 6.3413 0.453125 6.61636 0.453125 6.91421V17.7475C0.466414 18.0403 0.61081 18.3201 0.861012 18.4693L10.0448 23.8859C10.1707 23.9604 10.3117 23.9974 10.4527 23.9974C10.5937 23.9974 10.7347 23.9604 10.8606 23.8859L20.0452 18.4693C20.2937 18.3175 20.4398 18.0431 20.4531 17.7475V6.91421ZM10.4527 2.4599L18.8216 7.39516V15.4154L13.3597 8.61057C13.0385 8.22748 12.4185 8.22698 12.0978 8.61097L8.52034 13.0696L7.1259 11.5671C6.80675 11.2338 6.2437 11.2337 5.92295 11.5646L2.08467 15.669V7.39516L10.4527 2.4599ZM2.57576 17.5562L6.52094 13.3375L10.6368 17.7723C10.9473 18.107 11.4631 18.1198 11.7903 17.8036C12.1169 17.487 12.1305 16.9597 11.8206 16.6256L9.65169 14.2887L12.7287 10.4537L18.3976 17.5165L10.4527 22.2018L2.57576 17.5562Z" fill="black"/>
<path d="M7.11914 10.6641C8.49772 10.6641 9.61914 9.54264 9.61914 8.16406C9.61914 6.78548 8.49772 5.66406 7.11914 5.66406C5.74056 5.66406 4.61914 6.78548 4.61914 8.16406C4.61914 9.54264 5.74056 10.6641 7.11914 10.6641ZM7.11914 7.33073C7.57894 7.33073 7.95247 7.70467 7.95247 8.16406C7.95247 8.62345 7.57894 8.9974 7.11914 8.9974C6.65934 8.9974 6.28581 8.62345 6.28581 8.16406C6.28581 7.70467 6.65934 7.33073 7.11914 7.33073Z" fill="black"/>
</svg>
