<svg width="18" height="16" viewBox="0 0 18 16" fill="none" xmlns="http://www.w3.org/2000/svg">
<path d="M3.02333 15.5L3.00667 15.5167L2.98917 15.5H1.49333C1.27401 15.4998 1.06375 15.4125 0.908741 15.2573C0.753734 15.1022 0.666666 14.8918 0.666666 14.6725V1.3275C0.668191 1.10865 0.75575 0.899181 0.910427 0.744348C1.0651 0.589515 1.27448 0.501746 1.49333 0.5H16.5067C16.9633 0.5 17.3333 0.870833 17.3333 1.3275V14.6725C17.3318 14.8914 17.2442 15.1008 17.0896 15.2557C16.9349 15.4105 16.7255 15.4983 16.5067 15.5H3.02333ZM15.6667 10.5V2.16667H2.33333V13.8333L10.6667 5.5L15.6667 10.5ZM15.6667 12.8567L10.6667 7.85667L4.69 13.8333H15.6667V12.8567ZM5.66667 7.16667C5.22464 7.16667 4.80071 6.99107 4.48815 6.67851C4.17559 6.36595 4 5.94203 4 5.5C4 5.05797 4.17559 4.63405 4.48815 4.32149C4.80071 4.00893 5.22464 3.83333 5.66667 3.83333C6.10869 3.83333 6.53262 4.00893 6.84518 4.32149C7.15774 4.63405 7.33333 5.05797 7.33333 5.5C7.33333 5.94203 7.15774 6.36595 6.84518 6.67851C6.53262 6.99107 6.10869 7.16667 5.66667 7.16667Z" fill="black"/>
</svg>
