<svg width="16" height="17" viewBox="0 0 16 17" fill="white" xmlns="http://www.w3.org/2000/svg">
<path d="M11.3333 5.83333C10.6567 5.83333 9.54666 5.982 8.66666 6.354V4.5C8.66666 3.00333 5.91932 2.5 4.66666 2.5C3.41399 2.5 0.666656 3.00333 0.666656 4.5V10.5C0.666656 11.9967 3.41399 12.5 4.66666 12.5C5.34732 12.5 6.46732 12.3493 7.34932 11.9733C7.51799 13.36 10.1213 13.8333 11.3333 13.8333C12.586 13.8333 15.3333 13.33 15.3333 11.8333V7.83333C15.3333 6.33667 12.586 5.83333 11.3333 5.83333ZM11.3333 7.16667C12.5233 7.16667 13.6253 7.56333 13.9427 7.83333C13.6247 8.104 12.5227 8.5 11.3333 8.5C10.144 8.5 9.04132 8.104 8.72399 7.83333C9.04199 7.56333 10.1433 7.16667 11.3333 7.16667ZM14 9.768C13.806 10.0353 12.6247 10.5 11.3333 10.5C10.042 10.5 8.86066 10.0353 8.66666 9.768V9.31333C9.54666 9.68467 10.6567 9.83333 11.3333 9.83333C12.01 9.83333 13.12 9.68467 14 9.314V9.768ZM1.99999 7.98067C2.87999 8.35133 3.98999 8.5 4.66666 8.5C5.34332 8.5 6.45332 8.35133 7.33332 7.98067V8.43533C7.13932 8.702 5.95799 9.16667 4.66666 9.16667C3.37532 9.16667 2.19399 8.702 1.99999 8.43467V7.98067ZM1.99999 5.98067C2.87999 6.35133 3.98999 6.5 4.66666 6.5C5.34332 6.5 6.45332 6.35133 7.33332 5.98067V6.43533C7.13932 6.702 5.95799 7.16667 4.66666 7.16667C3.37532 7.16667 2.19399 6.702 1.99999 6.43467V5.98067ZM4.66666 3.83333C5.85666 3.83333 6.95866 4.23 7.27599 4.5C6.95866 4.77067 5.85599 5.16667 4.66666 5.16667C3.47732 5.16667 2.37532 4.77067 2.05732 4.5C2.37532 4.23 3.47666 3.83333 4.66666 3.83333ZM1.99999 10.442V9.98067C2.87999 10.3513 3.98999 10.5 4.66666 10.5C5.34332 10.5 6.45332 10.3513 7.33332 9.98067V10.442C7.12132 10.71 5.94399 11.1667 4.66666 11.1667C3.38932 11.1667 2.21199 10.71 1.99999 10.442ZM11.3333 12.5C10.056 12.5 8.87866 12.0433 8.66666 11.7753V11.314C9.54666 11.6847 10.6567 11.8333 11.3333 11.8333C12.01 11.8333 13.12 11.6847 14 11.314V11.7753C13.788 12.0433 12.6107 12.5 11.3333 12.5Z" />
</svg>
