<svg width="165" height="162" viewBox="0 0 195 192" fill="white" xmlns="http://www.w3.org/2000/svg">
<path d="M8.58276 0.612882L191.33 90.6622C194.278 92.1149 195.49 95.6825 194.038 98.6306C193.458 99.8069 192.506 100.759 191.33 101.338L8.58652 191.386C5.63838 192.839 2.0708 191.626 0.618098 188.678C-0.0171286 187.389 -0.16438 185.913 0.203543 184.524L18.3093 116.152C18.9081 113.891 20.776 112.19 23.0832 111.805L104.98 98.1501C105.983 97.9829 106.812 97.3205 107.211 96.4201L107.425 95.7043C107.657 94.3149 106.885 92.9901 105.64 92.4698L104.98 92.2801L22.6208 78.5537C20.3127 78.169 18.4442 76.4673 17.846 74.2051L0.199417 7.47306C-0.64122 4.29577 1.25301 1.03859 4.4303 0.197958C5.81916 -0.169502 7.29407 -0.0221256 8.58276 0.612882Z" />
</svg>
