<svg width="18" height="16" viewBox="0 0 18 16" fill="none" xmlns="http://www.w3.org/2000/svg">
<path d="M9.72158 0.499638L17.6599 14.2496C17.7331 14.3763 17.7716 14.52 17.7716 14.6663C17.7716 14.8126 17.7331 14.9563 17.6599 15.083C17.5868 15.2096 17.4816 15.3148 17.3549 15.388C17.2282 15.4611 17.0845 15.4996 16.9382 15.4996H1.06158C0.915305 15.4996 0.771604 15.4611 0.644924 15.388C0.518245 15.3148 0.413049 15.2096 0.339912 15.083C0.266774 14.9563 0.228271 14.8126 0.228271 14.6663C0.228272 14.52 0.266778 14.3763 0.339917 14.2496L8.27825 0.499638C8.35139 0.372965 8.45659 0.267776 8.58327 0.194643C8.70995 0.121509 8.85364 0.0830078 8.99992 0.0830078C9.14619 0.0830078 9.28989 0.121509 9.41656 0.194643C9.54324 0.267776 9.64844 0.372965 9.72158 0.499638ZM8.16658 11.333V12.9996H9.83325V11.333H8.16658ZM8.16658 5.49964V9.6663H9.83325V5.49964H8.16658Z" fill="#FEA644"/>
</svg>
