<svg width="24" height="24" viewBox="0 0 24 24" fill="none" xmlns="http://www.w3.org/2000/svg">
    <path fill-rule="evenodd" clip-rule="evenodd"
        d="M3 15.279V18H21V15.279L20.316 15.052C18.931 14.589 18 13.298 18 11.838V9C18 5.691 15.309 3 12 3C8.691 3 6 5.691 6 9V11.838C6 13.298 5.069 14.589 3.684 15.052L3 15.279ZM17.966 16H6.035C7.255 14.998 8 13.486 8 11.838V9C8 6.794 9.794 5 12 5C14.206 5 16 6.794 16 9V11.838C16 13.486 16.745 14.998 17.966 16ZM11.9997 21C10.5237 21 9.24769 20.19 8.55469 19H15.4447C14.7517 20.19 13.4757 21 11.9997 21Z" />
</svg>