<svg width="24" height="24" viewBox="0 0 24 24" fill="none" xmlns="http://www.w3.org/2000/svg">
    <path fill-rule="evenodd" clip-rule="evenodd"
        d="M2 5C2 3.34272 3.34272 2 5 2H7.588V4H5C4.44728 4 4 4.44728 4 5V7.588H2V5ZM13 8V11.8889C13 13.2175 11.7765 14 10.6667 14H10V12H10.6667C10.8127 12 10.9165 11.9501 10.9691 11.9062C10.9865 11.8918 10.9956 11.8811 11 11.8746V8H13ZM11.0038 11.8675C11.0039 11.8675 11.0035 11.8688 11.0021 11.8713C11.0029 11.8687 11.0036 11.8675 11.0038 11.8675ZM6 8.08008V11.5801H8V8.08008H6ZM16 8.08008V11.5801H18V8.08008H16ZM14.5349 15.4499C13.1354 16.8494 10.8656 16.8494 9.46611 15.4499L8.0519 16.8641C10.2324 19.0446 13.7686 19.0446 15.9491 16.8641L14.5349 15.4499ZM22 19V16.412H20V19C20 19.5527 19.5527 20 19 20H16.412V22H19C20.6573 22 22 20.6573 22 19ZM2 19V16.412H4V19C4 19.5527 4.44728 20 5 20H7.588V22H5C3.34272 22 2 20.6573 2 19ZM19 2H16.412V4H19C19.5527 4 20 4.44728 20 5V7.588H22V5C22 3.34272 20.6573 2 19 2Z" />
</svg>