<svg width="24" height="24" viewBox="0 0 24 24" fill="none" xmlns="http://www.w3.org/2000/svg">
    <path fill-rule="evenodd" clip-rule="evenodd"
        d="M21 1.993C21 1.445 20.556 1 20.008 1H1.992C1.72938 1.00209 1.47813 1.10742 1.29251 1.29322C1.1069 1.47902 1.00183 1.73038 1 1.993V18.007C1 18.2702 1.10448 18.5226 1.29049 18.7088C1.4765 18.895 1.72881 18.9997 1.992 19H9V17H5.827L13 9.829L15.5 9.5L14.5 8.5L13 7L3 16.999V3H19V8.41421H21V1.993ZM8.41421 5.58579C8.03914 5.21071 7.53043 5 7 5C6.46957 5 5.96086 5.21071 5.58579 5.58579C5.21071 5.96086 5 6.46957 5 7C5 7.53043 5.21071 8.03914 5.58579 8.41421C5.96086 8.78929 6.46957 9 7 9C7.53043 9 8.03914 8.78929 8.41421 8.41421C8.78929 8.03914 9 7.53043 9 7C9 6.46957 8.78929 5.96086 8.41421 5.58579ZM10 16.5C10 12.92 12.92 10 16.5 10C20.08 10 23 12.92 23 16.5C23 20.08 20.08 23 16.5 23C12.92 23 10 20.08 10 16.5ZM18.87 15.91H21.46C21.23 13.91 19.83 12.28 17.95 11.71C18.03 11.86 18.1 12.01 18.17 12.19C18.58 13.19 18.82 14.5 18.87 15.91ZM16.505 21.4985C16.4616 21.4841 16.141 21.35 15.76 20.43C15.4 19.55 15.19 18.36 15.13 17.08H17.87C17.82 18.35 17.6 19.55 17.24 20.43C16.8683 21.35 16.5484 21.4841 16.505 21.4985ZM15.77 12.56C15.41 13.44 15.19 14.64 15.14 15.91H15.15H17.89C17.83 14.63 17.62 13.44 17.26 12.56C16.85 11.57 16.51 11.49 16.51 11.49C16.51 11.49 16.17 11.57 15.77 12.56ZM15.06 11.71L15.06 11.71L15.04 11.7C13.17 12.27 11.77 13.9 11.53 15.9H14.14C14.19 14.49 14.43 13.18 14.84 12.18C14.91 12.01 14.99 11.85 15.06 11.71ZM14.13 17.09H11.54C11.77 19.09 13.17 20.72 15.05 21.29C14.97 21.14 14.9 20.99 14.83 20.81C14.42 19.81 14.18 18.5 14.13 17.09ZM17.95 21.29L17.95 21.29H17.96C19.83 20.72 21.23 19.09 21.47 17.09H18.87C18.82 18.5 18.58 19.81 18.17 20.81C18.1 20.99 18.02 21.15 17.95 21.29Z" />
</svg>