<svg width="24" height="24" viewBox="0 0 24 24" fill="none" xmlns="http://www.w3.org/2000/svg">
    <path fill-rule="evenodd" clip-rule="evenodd"
        d="M20.008 1C20.556 1 21 1.445 21 1.993V8.41421H19V3H3V16.999L13 7L14.5 8.5L15.5 9.5L14 11L13 9.829L5.827 17H11V19H1.992C1.72881 18.9997 1.4765 18.895 1.29049 18.7088C1.10448 18.5226 1 18.2702 1 18.007V1.993C1.00183 1.73038 1.1069 1.47902 1.29251 1.29322C1.47813 1.10742 1.72938 1.00209 1.992 1H20.008ZM7 5C7.53043 5 8.03914 5.21071 8.41421 5.58579C8.78929 5.96086 9 6.46957 9 7C9 7.53043 8.78929 8.03914 8.41421 8.41421C8.03914 8.78929 7.53043 9 7 9C6.46957 9 5.96086 8.78929 5.58579 8.41421C5.21071 8.03914 5 7.53043 5 7C5 6.46957 5.21071 5.96086 5.58579 5.58579C5.96086 5.21071 6.46957 5 7 5ZM22 15C22 12.794 20.205 11 18 11C15.795 11 14 12.794 14 15C13.447 15 13 15.448 13 16V22C13 22.552 13.447 23 14 23H22C22.553 23 23 22.552 23 22V16C23 15.448 22.553 15 22 15ZM18 13C19.104 13 20 13.897 20 15H16C16 13.897 16.896 13 18 13ZM19 19C19 19.5523 18.5523 20 18 20C17.4477 20 17 19.5523 17 19C17 18.4477 17.4477 18 18 18C18.5523 18 19 18.4477 19 19ZM21 21H15V17H21V21Z" />
</svg>