<svg width="3371" height="434" viewBox="0 0 3371 434" fill="none" xmlns="http://www.w3.org/2000/svg">
<path d="M3314.77 185.017V311.14C3314.77 319.686 3316.7 325.889 3320.56 329.749C3324.7 333.332 3331.59 335.124 3341.24 335.124H3370.19V374.408H3332.97C3311.74 374.408 3295.48 369.446 3284.17 359.522C3272.87 349.597 3267.22 333.47 3267.22 311.14V185.017H3240.34V146.56H3267.22V89.9083H3314.77V146.56H3370.19V185.017H3314.77Z" fill="black"/>
<path d="M3213.39 254.902C3213.39 263.448 3212.84 271.167 3211.74 278.059H3037.64C3039.02 296.254 3045.78 310.865 3057.91 321.892C3070.04 332.919 3084.92 338.433 3102.57 338.433C3127.93 338.433 3145.85 327.819 3156.32 306.592H3207.19C3200.3 327.544 3187.75 344.773 3169.56 358.282C3151.64 371.514 3129.31 378.131 3102.57 378.131C3080.79 378.131 3061.22 373.306 3043.85 363.657C3026.76 353.733 3013.25 339.949 3003.32 322.306C2993.67 304.387 2988.85 283.711 2988.85 260.278C2988.85 236.845 2993.54 216.307 3002.91 198.664C3012.56 180.745 3025.93 166.961 3043.02 157.312C3060.39 147.663 3080.24 142.839 3102.57 142.839C3124.07 142.839 3143.23 147.526 3160.05 156.899C3176.86 166.272 3189.96 179.504 3199.33 196.596C3208.7 213.413 3213.39 232.848 3213.39 254.902ZM3164.18 240.016C3163.91 222.648 3157.7 208.726 3145.57 198.25C3133.44 187.775 3118.42 182.537 3100.5 182.537C3084.23 182.537 3070.31 187.775 3058.73 198.25C3047.16 208.45 3040.26 222.372 3038.06 240.016H3164.18Z" fill="black"/>
<path d="M2942.66 68.406V374.409H2895.52V68.406H2942.66Z" fill="black"/>
<path d="M2833.63 68.406V374.409H2786.49V68.406H2833.63Z" fill="black"/>
<path d="M2490.52 259.451C2490.52 236.57 2495.21 216.307 2504.58 198.664C2514.23 181.02 2527.19 167.374 2543.45 157.726C2559.99 147.801 2578.19 142.839 2598.04 142.839C2615.96 142.839 2631.53 146.423 2644.77 153.59C2658.27 160.482 2669.03 169.166 2677.02 179.642V146.561H2724.57V374.409H2677.02V340.5C2669.03 351.252 2658.14 360.211 2644.35 367.379C2630.57 374.547 2614.85 378.131 2597.21 378.131C2577.64 378.131 2559.72 373.168 2543.45 363.244C2527.19 353.044 2514.23 338.984 2504.58 321.065C2495.21 302.87 2490.52 282.332 2490.52 259.451ZM2677.02 260.278C2677.02 244.564 2673.71 230.918 2667.1 219.34C2660.76 207.761 2652.35 198.94 2641.87 192.875C2631.4 186.81 2620.09 183.777 2607.96 183.777C2595.83 183.777 2584.53 186.81 2574.05 192.875C2563.58 198.664 2555.03 207.348 2548.42 218.926C2542.08 230.229 2538.91 243.737 2538.91 259.451C2538.91 275.165 2542.08 288.949 2548.42 300.803C2555.03 312.657 2563.58 321.754 2574.05 328.095C2584.81 334.16 2596.11 337.192 2607.96 337.192C2620.09 337.192 2631.4 334.16 2641.87 328.095C2652.35 322.03 2660.76 313.208 2667.1 301.63C2673.71 289.776 2677.02 275.992 2677.02 260.278Z" fill="black"/>
<path d="M2467.36 87.0144L2382.17 374.409H2328.83L2268.46 156.899L2204.36 374.409L2151.43 374.823L2069.97 87.0144H2120L2179.55 321.065L2244.06 87.0144H2296.99L2356.95 319.825L2416.91 87.0144H2467.36Z" fill="black"/>
<path d="M1832.12 142.839C1850.04 142.839 1866.03 146.561 1880.09 154.004C1894.42 161.447 1905.59 172.474 1913.58 187.085C1921.58 201.696 1925.58 219.34 1925.58 240.016V374.409H1878.85V247.045C1878.85 226.645 1873.75 211.069 1863.55 200.318C1853.35 189.291 1839.43 183.777 1821.78 183.777C1804.14 183.777 1790.08 189.291 1779.6 200.318C1769.4 211.069 1764.3 226.645 1764.3 247.045V374.409H1717.16V146.561H1764.3V172.612C1772.02 163.239 1781.81 155.934 1793.66 150.696C1805.79 145.458 1818.61 142.839 1832.12 142.839Z" fill="black"/>
<path d="M1670.78 254.902C1670.78 263.448 1670.22 271.167 1669.12 278.059H1495.03C1496.41 296.254 1503.16 310.865 1515.29 321.892C1527.42 332.919 1542.31 338.433 1559.95 338.433C1585.32 338.433 1603.23 327.819 1613.71 306.592H1664.57C1657.68 327.544 1645.14 344.773 1626.94 358.282C1609.02 371.514 1586.69 378.131 1559.95 378.131C1538.17 378.131 1518.6 373.306 1501.23 363.657C1484.14 353.733 1470.63 339.949 1460.71 322.306C1451.06 304.387 1446.24 283.711 1446.24 260.278C1446.24 236.845 1450.92 216.307 1460.29 198.664C1469.94 180.745 1483.31 166.961 1500.41 157.312C1517.77 147.663 1537.62 142.839 1559.95 142.839C1581.46 142.839 1600.62 147.526 1617.43 156.899C1634.25 166.272 1647.34 179.504 1656.72 196.596C1666.09 213.413 1670.78 232.848 1670.78 254.902ZM1621.57 240.016C1621.29 222.648 1615.09 208.726 1602.96 198.25C1590.83 187.775 1575.8 182.537 1557.89 182.537C1541.62 182.537 1527.7 187.775 1516.12 198.25C1504.54 208.45 1497.65 222.372 1495.44 240.016H1621.57Z" fill="black"/>
<path d="M1165.97 259.451C1165.97 236.57 1170.66 216.307 1180.03 198.664C1189.68 181.021 1202.64 167.375 1218.9 157.726C1235.44 147.801 1253.78 142.839 1273.9 142.839C1288.79 142.839 1303.4 146.147 1317.73 152.764C1332.35 159.104 1343.92 167.65 1352.47 178.402V68.406H1400.02V374.409H1352.47V340.087C1344.75 351.114 1334 360.212 1320.22 367.379C1306.71 374.547 1291.13 378.131 1273.49 378.131C1253.64 378.131 1235.44 373.168 1218.9 363.244C1202.64 353.044 1189.68 338.984 1180.03 321.065C1170.66 302.87 1165.97 282.332 1165.97 259.451ZM1352.47 260.278C1352.47 244.565 1349.16 230.918 1342.55 219.34C1336.2 207.761 1327.8 198.94 1317.32 192.875C1306.84 186.81 1295.54 183.777 1283.41 183.777C1271.28 183.777 1259.98 186.81 1249.5 192.875C1239.03 198.664 1230.48 207.348 1223.87 218.926C1217.53 230.229 1214.35 243.737 1214.35 259.451C1214.35 275.165 1217.53 288.949 1223.87 300.803C1230.48 312.657 1239.03 321.754 1249.5 328.095C1260.26 334.16 1271.56 337.192 1283.41 337.192C1295.54 337.192 1306.84 334.16 1317.32 328.095C1327.8 322.03 1336.2 313.208 1342.55 301.63C1349.16 289.776 1352.47 275.992 1352.47 260.278Z" fill="black"/>
<path d="M1096.64 116.374C1088.09 116.374 1080.93 113.479 1075.14 107.69C1069.35 101.9 1066.45 94.7328 1066.45 86.1868C1066.45 77.6408 1069.35 70.4731 1075.14 64.6839C1080.93 58.8946 1088.09 56 1096.64 56C1104.91 56 1111.94 58.8946 1117.73 64.6839C1123.52 70.4731 1126.41 77.6408 1126.41 86.1868C1126.41 94.7328 1123.52 101.9 1117.73 107.69C1111.94 113.479 1104.91 116.374 1096.64 116.374ZM1119.8 146.56V374.409H1072.66V146.56H1119.8Z" fill="black"/>
<path d="M1010.7 87.0144V374.409H963.554V177.575L875.888 374.409H843.22L755.141 177.575V374.409H708V87.0144H758.863L859.761 312.382L960.246 87.0144H1010.7Z" fill="black"/>
<g clip-path="url(#clip0_14416_11087)">
<path d="M462 300.462C425.553 300.462 396 330.359 396 367.231C396 404.102 425.553 434 462 434C498.447 434 528 404.102 528 367.231C528 330.359 498.447 300.462 462 300.462Z" fill="#FF5500"/>
<path d="M132 434H0V166.923C0 74.8928 74.03 0 165 0C255.97 0 330 74.8928 330 166.923V267.077H198V166.923C198 148.524 183.187 133.538 165 133.538C146.813 133.538 132 148.524 132 166.923V434Z" fill="#FF5500"/>
<path d="M330 434H198V166.923C198 74.8928 272.03 0 363 0C453.97 0 528 74.8928 528 166.923V267.077H396V166.923C396 148.524 381.187 133.538 363 133.538C344.813 133.538 330 148.524 330 166.923V434Z" fill="#FF5500"/>
</g>
<defs>
<clipPath id="clip0_14416_11087">
<rect width="528" height="434" fill="white"/>
</clipPath>
</defs>
</svg>
