<svg width="80" height="80" viewBox="0 0 80 80" fill="none" xmlns="http://www.w3.org/2000/svg">
<g id="lock" clip-path="url(#clip0_9423_95944)">
<g id="Line_Icons">
<g id="Group">
<path id="Vector" d="M13.3337 13.3337H33.3337V6.66699H13.3337C9.65699 6.66699 6.66699 9.65699 6.66699 13.3337V33.3337H13.3337V13.3337Z" fill="#FF5500"/>
<path id="Vector_2" d="M66.667 6.66699H46.667V13.3337H66.667V33.3337H73.3337V13.3337C73.3337 9.65699 70.3437 6.66699 66.667 6.66699Z" fill="#FF5500"/>
<path id="Vector_3" d="M13.3337 46.667H6.66699V66.667C6.66699 70.3437 9.65699 73.3337 13.3337 73.3337H33.3337V66.667H13.3337V46.667Z" fill="#FF5500"/>
<path id="Vector_4" d="M66.667 66.667H46.667V73.3337H66.667C70.3437 73.3337 73.3337 70.3437 73.3337 66.667V46.667H66.667V66.667Z" fill="#FF5500"/>
<path id="Vector_5" d="M40.0007 20C32.6473 20 26.6673 25.98 26.6673 33.3333V36.6667H23.334V60H56.6673V36.6667H53.334V33.3333C53.334 25.98 47.354 20 40.0007 20ZM33.334 33.3333C33.334 29.66 36.324 26.6667 40.0007 26.6667C43.6773 26.6667 46.6673 29.66 46.6673 33.3333V36.6667H33.334V33.3333ZM50.0007 53.3333H30.0007V43.3333H50.0007V53.3333Z" fill="black"/>
</g>
</g>
</g>
<defs>
<clipPath id="clip0_9423_95944">
<rect width="80" height="80" fill="white"/>
</clipPath>
</defs>
</svg>
