<svg width="218" height="218" viewBox="0 0 218 218" fill="none" xmlns="http://www.w3.org/2000/svg">
<rect width="218" height="218" rx="108.5" fill="url(#paint0_linear_14409_9354)"/>
<g clip-path="url(#clip0_14409_9354)">
<path d="M82.3346 82.3337H102.335V75.667H82.3346C78.658 75.667 75.668 78.657 75.668 82.3337V102.334H82.3346V82.3337Z" fill="black"/>
<path d="M135.668 75.667H115.668V82.3337H135.668V102.334H142.335V82.3337C142.335 78.657 139.345 75.667 135.668 75.667Z" fill="black"/>
<path d="M82.3346 115.667H75.668V135.667C75.668 139.344 78.658 142.334 82.3346 142.334H102.335V135.667H82.3346V115.667Z" fill="black"/>
<path d="M135.668 135.667H115.668V142.334H135.668C139.345 142.334 142.335 139.344 142.335 135.667V115.667H135.668V135.667Z" fill="black"/>
<path d="M108.914 101.656L111.065 104.028C111.249 104.23 111.584 104.1 111.584 103.827V98.1474C111.584 97.9825 111.718 97.8489 111.882 97.8489H115.837C117.572 97.8489 119.179 98.7562 120.069 100.237L120.85 101.538C120.955 101.714 121.145 101.821 121.35 101.821H121.379C121.701 101.821 121.962 101.559 121.962 101.236V95.3285C121.962 95.0054 121.701 94.7435 121.379 94.7435H112.18C111.851 94.7435 111.584 94.4761 111.584 94.1462V91.448C111.584 91.2006 111.384 91 111.137 91H109.051C108.804 91 108.604 91.2006 108.604 91.448V94.1462C108.604 94.4761 108.337 94.7435 108.008 94.7435H96.5838C96.2613 94.7435 96 95.0054 96 95.3285V96.7217C96 96.8719 96.0576 97.0162 96.1608 97.125L108.979 108.599C109.085 108.712 109.139 108.856 109.14 109C109.139 109.144 109.085 109.288 108.979 109.401L96.1608 120.875C96.0576 120.984 96 121.128 96 121.278V122.671C96 122.995 96.2613 123.256 96.5838 123.256H108.008C108.337 123.256 108.604 123.524 108.604 123.854V126.552C108.604 126.799 108.804 127 109.051 127H111.137C111.384 127 111.584 126.799 111.584 126.552V123.854C111.584 123.524 111.851 123.257 112.18 123.257H121.379C121.701 123.257 121.962 122.995 121.962 122.671V116.764C121.962 116.441 121.701 116.179 121.379 116.179H121.35C121.145 116.179 120.955 116.286 120.849 116.462L120.069 117.763C119.179 119.244 117.572 120.151 115.837 120.151H111.882C111.717 120.151 111.584 120.017 111.584 119.853V114.173C111.584 113.9 111.249 113.77 111.065 113.972L108.914 116.344C108.714 116.564 108.604 116.851 108.604 117.148V119.853C108.604 120.018 108.47 120.151 108.306 120.151H100.973C100.939 120.151 100.906 120.135 100.889 120.106C100.868 120.07 100.873 120.027 100.898 119.998L112.325 109.245C112.325 109.244 112.326 109.243 112.327 109.243C112.441 109.104 112.441 108.896 112.327 108.757C112.326 108.757 112.325 108.756 112.325 108.755L100.898 98.0023C100.873 97.9727 100.868 97.9302 100.889 97.8938C100.906 97.8648 100.939 97.8486 100.973 97.8486H108.306C108.47 97.8486 108.604 97.9823 108.604 98.1471V100.852C108.604 101.149 108.714 101.436 108.914 101.656Z" fill="black"/>
</g>
<defs>
<linearGradient id="paint0_linear_14409_9354" x1="109" y1="0" x2="109" y2="218" gradientUnits="userSpaceOnUse">
<stop stop-color="#F9F9F9"/>
<stop offset="1" stop-color="#F9F9F9" stop-opacity="0"/>
</linearGradient>
<clipPath id="clip0_14409_9354">
<rect width="80" height="80" fill="white" transform="translate(69 69)"/>
</clipPath>
</defs>
</svg>
