<svg width="88" height="96" viewBox="0 0 88 96" fill="none" xmlns="http://www.w3.org/2000/svg">
<path d="M80.4722 18.9182L50.9407 1.85884C48.812 0.659587 46.4435 0 43.985 0C41.5565 0 39.158 0.629606 37.0294 1.85884L7.52779 18.9182C5.42911 20.1474 3.66021 21.8863 2.43098 24.015C1.20175 26.1137 0.572144 28.5122 0.572144 30.9706V65.0294C0.572144 67.4578 1.20175 69.8563 2.43098 71.985C3.66021 74.0837 5.39913 75.8526 7.52779 77.0818L37.0294 94.1412C39.128 95.3704 41.5265 96 43.985 96C46.4135 96 48.812 95.3704 50.9407 94.1412L80.4722 77.0818C82.5709 75.8526 84.3398 74.1137 85.569 71.985C86.7982 69.8863 87.4279 67.4878 87.4279 65.0294V30.9407C87.4279 28.5122 86.7982 26.1137 85.569 23.985C84.3398 21.8863 82.6009 20.1474 80.4722 18.9182ZM11.0356 70.9956C9.98626 70.396 9.08682 69.4966 8.4872 68.4472C7.88757 67.3979 7.55778 66.1986 7.55778 64.9694V30.9407C7.55778 29.7114 7.88757 28.5122 8.4872 27.4628C9.08682 26.4135 9.98626 25.5141 11.0356 24.9144L40.5372 7.88507C41.5865 7.28545 42.7858 6.95565 44.015 6.95565C45.2442 6.95565 46.4435 7.28545 47.4928 7.88507L59.8151 15.0206C56.4272 16.6096 53.6989 19.3079 52.1099 22.6658L51.6002 23.6852C48.4822 22.456 45.0943 21.9763 41.7664 22.336C38.4385 22.6958 35.2305 23.8651 32.4422 25.7539C29.654 27.6427 27.3754 30.1611 25.8164 33.1293C24.2573 36.0974 23.4179 39.3954 23.4179 42.7533V53.0368C23.4179 56.1849 24.1374 59.3029 25.5465 62.1212L30.3435 52.0175V42.7833C30.3435 39.1555 31.7826 35.7077 34.331 33.1593C36.8794 30.6109 40.3573 29.1718 43.955 29.1718C45.514 29.1718 47.0731 29.4416 48.5422 29.9813L44.5846 38.4959L29.4741 70.1861C28.9344 71.3254 28.1549 72.3748 27.1955 73.1843C26.2361 74.0237 25.1268 74.6533 23.8976 75.0131C21.649 75.7027 19.2205 75.5228 17.0918 74.5034L11.0356 70.9956ZM80.4722 64.9694C80.4722 66.1986 80.1424 67.3979 79.5428 68.4472C78.9432 69.4966 78.0437 70.396 76.9944 70.9956L47.4928 88.055C46.4435 88.6546 45.2442 88.9844 44.015 88.9844C42.7858 88.9844 41.5865 88.6546 40.5372 88.055L28.035 80.8595C31.4229 79.2705 34.1212 76.5422 35.7402 73.1843L36.2199 72.1349C39.3379 73.4241 42.7258 73.9038 46.0837 73.574C49.4416 73.2442 52.6796 72.075 55.4678 70.1861C58.2861 68.2973 60.5646 65.7489 62.1537 62.7808C63.7427 59.8126 64.5821 56.4847 64.5522 53.0968V42.8132C64.5522 39.5753 63.7726 36.3673 62.3036 33.4891L57.6565 43.3829V53.1268C57.6565 56.7545 56.2174 60.2024 53.6689 62.7508C51.1205 65.2992 47.6427 66.7383 44.045 66.7383C42.396 66.7383 40.777 66.4385 39.248 65.8688L58.376 25.664C59.4553 23.4453 61.3442 21.7364 63.6827 20.9269C65.9913 20.1174 68.5696 20.2673 70.7883 21.3167L77.0244 24.9144C78.0737 25.5141 78.9731 26.4135 79.5728 27.4628C80.1724 28.5122 80.5022 29.7114 80.5022 30.9407V64.9694H80.4722Z" fill="#7E3EE5"/>
</svg>
