<svg width="26" height="36" viewBox="0 0 26 36" fill="none" xmlns="http://www.w3.org/2000/svg">
<path d="M12.9324 10.6559L15.0872 13.028C15.2709 13.23 15.6067 13.1 15.6067 12.8271V7.1474C15.6067 6.9825 15.7403 6.8489 15.905 6.8489H19.8658C21.6032 6.8489 23.2128 7.7562 24.1036 9.2374L24.8855 10.5377C24.9912 10.7135 25.1814 10.8211 25.3866 10.8211H25.4152C25.7382 10.8211 26 10.5591 26 10.2358V4.3285C26 4.0054 25.7383 3.7435 25.4155 3.7435H16.2036C15.874 3.7435 15.6067 3.4761 15.6067 3.1462V0.448C15.6067 0.2006 15.4063 0 15.159 0H13.07C12.8228 0 12.6223 0.2006 12.6223 0.448V3.1462C12.6223 3.4761 12.3551 3.7435 12.0255 3.7435H0.5846C0.2617 3.7435 0 4.0054 0 4.3285V5.7217C0 5.8719 0.0577 6.0162 0.161 6.125L12.9978 17.5994C13.1044 17.7115 13.1581 17.8556 13.1587 18C13.158 18.1443 13.1044 18.2885 12.9978 18.4006L0.161 29.8749C0.0577 29.9838 0 30.1281 0 30.2782V31.6715C0 31.9946 0.2617 32.2564 0.5846 32.2564H12.0254C12.3551 32.2564 12.6223 32.5239 12.6223 32.8539V35.552C12.6223 35.7994 12.8228 36 13.07 36H15.159C15.4063 36 15.6066 35.7995 15.6066 35.552V32.8538C15.6066 32.5239 15.8739 32.2565 16.2035 32.2565H25.4152C25.7381 32.2565 26 31.9945 26 31.6713V25.7642C26 25.4409 25.7381 25.1789 25.4152 25.1789H25.3866C25.1814 25.1789 24.9912 25.2865 24.8854 25.4623L24.1036 26.7626C23.2127 28.2438 21.6031 29.1511 19.8657 29.1511H15.905C15.7402 29.1511 15.6066 29.0173 15.6066 28.8525V23.1729C15.6066 22.9 15.2709 22.77 15.0872 22.972L12.9324 25.3441C12.7326 25.5641 12.6218 25.8505 12.6218 26.1478V28.8528C12.6218 29.0177 12.4883 29.1513 12.3236 29.1513H4.9797C4.9461 29.1513 4.9133 29.1351 4.8964 29.1061C4.8752 29.0697 4.8804 29.0272 4.9048 28.9976L16.3483 18.2447C16.3489 18.2439 16.3496 18.2432 16.3502 18.2425C16.465 18.1035 16.465 17.8964 16.3502 17.7575C16.3496 17.7567 16.349 17.756 16.3483 17.7553L4.9048 7.0023C4.8804 6.9727 4.8752 6.9302 4.8964 6.8938C4.9133 6.8648 4.9461 6.8486 4.9797 6.8486H12.3236C12.4883 6.8486 12.6218 6.9823 12.6218 7.1471V9.8521C12.6218 10.1494 12.7326 10.4359 12.9324 10.6559Z" fill="white" />
</svg>
