<svg width="80" height="80" viewBox="0 0 80 80" fill="none" xmlns="http://www.w3.org/2000/svg">
<g id="miden">
<rect width="80" height="80" fill="#7E3EE5"/>
<path id="Vector" d="M57.5564 25.4591L42.9361 16.9294C41.8823 16.3298 40.7097 16 39.4926 16C38.2903 16 37.1029 16.3148 36.049 16.9294L21.4436 25.4591C20.4046 26.0737 19.5288 26.9432 18.9203 28.0075C18.3117 29.0568 18 30.2561 18 31.4853V48.5147C18 49.7289 18.3117 50.9282 18.9203 51.9925C19.5288 53.0418 20.3897 53.9263 21.4436 54.5409L36.049 63.0706C37.088 63.6852 38.2755 64 39.4926 64C40.6949 64 41.8823 63.6852 42.9361 63.0706L57.5564 54.5409C58.5954 53.9263 59.4712 53.0568 60.0797 51.9925C60.6883 50.9432 61 49.7439 61 48.5147V31.4703C61 30.2561 60.6883 29.0568 60.0797 27.9925C59.4712 26.9432 58.6103 26.0737 57.5564 25.4591ZM23.1802 51.4978C22.6607 51.198 22.2154 50.7483 21.9185 50.2236C21.6217 49.6989 21.4584 49.0993 21.4584 48.4847V31.4703C21.4584 30.8557 21.6217 30.2561 21.9185 29.7314C22.2154 29.2067 22.6607 28.757 23.1802 28.4572L37.7856 19.9425C38.3051 19.6427 38.8989 19.4778 39.5074 19.4778C40.116 19.4778 40.7097 19.6427 41.2292 19.9425L47.3296 23.5103C45.6524 24.3048 44.3017 25.654 43.515 27.3329L43.2627 27.8426C41.719 27.228 40.0418 26.9881 38.3942 27.168C36.7466 27.3479 35.1584 27.9325 33.778 28.877C32.3977 29.8214 31.2696 31.0806 30.4978 32.5646C29.7259 34.0487 29.3103 35.6977 29.3103 37.3766V42.5184C29.3103 44.0924 29.6666 45.6515 30.3642 47.0606L32.739 42.0087V37.3916C32.739 35.5778 33.4515 33.8538 34.7132 32.5796C35.9748 31.3054 37.6966 30.5859 39.4777 30.5859C40.2496 30.5859 41.0214 30.7208 41.7487 30.9906L39.7894 35.248L32.3086 51.0931C32.0414 51.6627 31.6555 52.1874 31.1805 52.5921C30.7056 53.0119 30.1564 53.3267 29.5478 53.5066C28.4346 53.8513 27.2323 53.7614 26.1785 53.2517L23.1802 51.4978ZM57.5564 48.4847C57.5564 49.0993 57.3932 49.6989 57.0963 50.2236C56.7994 50.7483 56.3542 51.198 55.8347 51.4978L41.2292 60.0275C40.7097 60.3273 40.116 60.4922 39.5074 60.4922C38.8989 60.4922 38.3051 60.3273 37.7856 60.0275L31.5961 56.4297C33.2734 55.6352 34.6093 54.2711 35.4108 52.5921L35.6483 52.0675C37.1919 52.7121 38.8692 52.9519 40.5316 52.787C42.194 52.6221 43.797 52.0375 45.1774 51.0931C46.5727 50.1487 47.7007 48.8745 48.4874 47.3904C49.2741 45.9063 49.6897 44.2423 49.6748 42.5484V37.4066C49.6748 35.7876 49.2889 34.1836 48.5616 32.7445L46.261 37.6914V42.5634C46.261 44.3773 45.5485 46.1012 44.2868 47.3754C43.0252 48.6496 41.3034 49.3691 39.5223 49.3691C38.7059 49.3691 37.9044 49.2192 37.1474 48.9344L46.6172 28.832C47.1515 27.7227 48.0866 26.8682 49.2444 26.4635C50.3873 26.0587 51.6638 26.1337 52.7622 26.6583L55.8495 28.4572C56.369 28.757 56.8143 29.2067 57.1111 29.7314C57.408 30.2561 57.5713 30.8557 57.5713 31.4703V48.4847H57.5564Z" fill="white"/>
</g>
</svg>
