<svg width="24" height="24" viewBox="0 0 24 24" fill="none" xmlns="http://www.w3.org/2000/svg">
    <path fill-rule="evenodd" clip-rule="evenodd"
        d="M11.9998 4.72733C8.61807 4.72733 5.7763 7.05002 4.96722 10.1818H3.0918C3.93724 6.03731 7.6099 2.90918 11.9998 2.90918C15.6807 2.90918 18.8515 5.11278 20.2788 8.26637L21.9997 6.54548V11.9999H16.5452L18.8797 9.66452C17.9052 6.7973 15.1925 4.72733 11.9998 4.72733ZM11.9998 19.2726C15.3807 19.2726 18.2225 16.9499 19.0324 13.8182H20.9079C20.0624 17.9626 16.3898 21.0908 11.9998 21.0908C8.31899 21.0908 5.14813 18.8872 3.72088 15.7336L2 17.4545V12H7.45446L5.11995 14.3354C6.09448 17.2026 8.80716 19.2726 11.9998 19.2726Z" />
</svg>