<svg width="24" height="24" viewBox="0 0 24 24" fill="none" xmlns="http://www.w3.org/2000/svg">
    <g clip-path="url(#clip0_1_359)">
        <path
            d="M6.51701 7.82937C10.1148 4.23161 15.242 3.20984 19.3736 4.87225C21.036 9.00388 20.0143 14.1311 16.4165 17.7289C15.8346 18.3108 15.213 18.8249 14.5618 19.2725L14.6381 21.9397C14.6412 22.0501 14.6076 22.1584 14.5426 22.2476C14.4776 22.3369 14.3849 22.4022 14.2789 22.4332L9.27968 23.904C9.20506 23.926 9.12635 23.9303 9.0498 23.9165C8.97324 23.9028 8.90095 23.8713 8.83868 23.8247C8.77641 23.7781 8.72588 23.7176 8.6911 23.648C8.65632 23.5784 8.63825 23.5017 8.63833 23.4239L8.63833 20.2646C8.63837 19.9994 8.53307 19.745 8.34559 19.5574L4.68843 15.9003C4.50087 15.7128 4.24652 15.6075 3.98132 15.6075L0.821971 15.6075C0.744186 15.6076 0.667455 15.5896 0.59788 15.5548C0.528304 15.52 0.467803 15.4695 0.421187 15.4072C0.374571 15.3449 0.343126 15.2726 0.329352 15.1961C0.315579 15.1195 0.319856 15.0408 0.341846 14.9662L1.81263 9.96695C1.84368 9.86098 1.90894 9.76827 1.99823 9.70329C2.08751 9.63831 2.1958 9.60471 2.30619 9.60775L4.97339 9.68411C5.4217 9.03357 5.93506 8.41132 6.51701 7.82937ZM2.82591 13.6078L3.98132 13.6078C4.77691 13.6077 5.53996 13.9236 6.10264 14.4861L9.7598 18.1432C10.3222 18.7059 10.6381 19.469 10.638 20.2646V21.42L12.6052 20.8416L12.5628 19.3283C12.5532 18.9941 12.6276 18.6628 12.7792 18.3647C12.9308 18.0666 13.1547 17.8113 13.4304 17.6221C13.9876 17.2403 14.5137 16.8033 15.0023 16.3147C17.7388 13.5782 18.7535 9.7421 17.8024 6.44344C14.5038 5.49238 10.6677 6.50708 7.93122 9.24359C7.44261 9.7322 7.00562 10.2583 6.62307 10.8162C6.43388 11.0919 6.17856 11.3158 5.88049 11.4674C5.58241 11.619 5.25109 11.6934 4.91683 11.6838L3.40433 11.6407L2.82591 13.6078ZM11.4668 12.7791C11.0917 12.404 10.881 11.8953 10.881 11.3649C10.881 10.8345 11.0917 10.3258 11.4668 9.95069C11.8418 9.57562 12.3505 9.36491 12.881 9.36491C13.4114 9.36491 13.9201 9.57562 14.2952 9.95069C14.6703 10.3258 14.881 10.8345 14.881 11.3649C14.881 11.8953 14.6703 12.404 14.2952 12.7791C13.9201 13.1542 13.4114 13.3649 12.881 13.3649C12.3505 13.3649 11.8418 13.1542 11.4668 12.7791Z" />
    </g>
    <defs>
        <clipPath id="clip0_1_359">
            <rect width="24" height="24" fill="white" />
        </clipPath>
    </defs>
</svg>