<svg width="24" height="24" viewBox="0 0 24 24" fill="none" xmlns="http://www.w3.org/2000/svg">
    <path
        d="M3.3403 16.9998C2.91758 16.2688 2.58897 15.4873 2.3623 14.6738C2.85561 14.4229 3.2699 14.0404 3.55933 13.5687C3.84877 13.097 4.00207 12.5544 4.00228 12.0009C4.00248 11.4475 3.84959 10.9048 3.56051 10.4328C3.27143 9.96088 2.85742 9.57809 2.3643 9.32682C2.81634 7.69231 3.67703 6.19977 4.8653 4.98982C5.3294 5.29155 5.86792 5.45898 6.42128 5.4736C6.97464 5.48822 7.52126 5.34945 8.00063 5.07265C8.48001 4.79586 8.87346 4.39182 9.13743 3.90526C9.4014 3.41871 9.52561 2.8686 9.4963 2.31582C11.1384 1.89145 12.8615 1.89213 14.5033 2.31782C14.4743 2.87059 14.5987 3.42061 14.8629 3.90703C15.1271 4.39345 15.5207 4.7973 16.0001 5.07388C16.4796 5.35047 17.0262 5.48901 17.5796 5.47417C18.1329 5.45934 18.6713 5.2917 19.1353 4.98982C19.7143 5.57982 20.2283 6.25082 20.6603 6.99982C21.0933 7.74882 21.4173 8.52982 21.6383 9.32582C21.145 9.57672 20.7307 9.9592 20.4413 10.4309C20.1518 10.9027 19.9985 11.4453 19.9983 11.9987C19.9981 12.5522 20.151 13.0949 20.4401 13.5668C20.7292 14.0388 21.1432 14.4216 21.6363 14.6728C21.1843 16.3073 20.3236 17.7999 19.1353 19.0098C18.6712 18.7081 18.1327 18.5407 17.5793 18.526C17.026 18.5114 16.4794 18.6502 16 18.927C15.5206 19.2038 15.1272 19.6078 14.8632 20.0944C14.5992 20.5809 14.475 21.131 14.5043 21.6838C12.8622 22.1082 11.1391 22.1075 9.4973 21.6818C9.52635 21.1291 9.4019 20.579 9.13773 20.0926C8.87355 19.6062 8.47995 19.2023 8.00048 18.9258C7.52101 18.6492 6.97436 18.5106 6.42103 18.5255C5.8677 18.5403 5.32927 18.7079 4.8653 19.0098C4.2743 18.4068 3.7619 17.7314 3.3403 16.9998ZM9.0003 17.1958C10.0659 17.8105 10.8672 18.7968 11.2503 19.9658C11.7493 20.0128 12.2503 20.0138 12.7493 19.9668C13.1327 18.7977 13.9343 17.8113 15.0003 17.1968C16.0655 16.5805 17.3208 16.3793 18.5253 16.6318C18.8153 16.2238 19.0653 15.7888 19.2733 15.3338C18.4527 14.4173 17.9994 13.23 18.0003 11.9998C18.0003 10.7398 18.4703 9.56282 19.2733 8.66582C19.0638 8.21097 18.8128 7.77646 18.5233 7.36782C17.3196 7.62013 16.0651 7.4193 15.0003 6.80382C13.9347 6.18919 13.1335 5.20281 12.7503 4.03382C12.2513 3.98682 11.7503 3.98582 11.2513 4.03282C10.8679 5.20197 10.0663 6.18838 9.0003 6.80282C7.93509 7.41914 6.67978 7.62034 5.4753 7.36782C5.18587 7.77611 4.93544 8.21069 4.7273 8.66582C5.54788 9.58238 6.00119 10.7696 6.0003 11.9998C6.0003 13.2598 5.5303 14.4368 4.7273 15.3338C4.93678 15.7887 5.18784 16.2232 5.4773 16.6318C6.68102 16.3795 7.93551 16.5803 9.0003 17.1958ZM12.0003 14.9998C11.2047 14.9998 10.4416 14.6838 9.87898 14.1211C9.31637 13.5585 9.0003 12.7955 9.0003 11.9998C9.0003 11.2042 9.31637 10.4411 9.87898 9.8785C10.4416 9.31589 11.2047 8.99982 12.0003 8.99982C12.796 8.99982 13.559 9.31589 14.1216 9.8785C14.6842 10.4411 15.0003 11.2042 15.0003 11.9998C15.0003 12.7955 14.6842 13.5585 14.1216 14.1211C13.559 14.6838 12.796 14.9998 12.0003 14.9998ZM12.0003 12.9998C12.2655 12.9998 12.5199 12.8945 12.7074 12.7069C12.8949 12.5194 13.0003 12.265 13.0003 11.9998C13.0003 11.7346 12.8949 11.4803 12.7074 11.2927C12.5199 11.1052 12.2655 10.9998 12.0003 10.9998C11.7351 10.9998 11.4807 11.1052 11.2932 11.2927C11.1057 11.4803 11.0003 11.7346 11.0003 11.9998C11.0003 12.265 11.1057 12.5194 11.2932 12.7069C11.4807 12.8945 11.7351 12.9998 12.0003 12.9998Z" />
</svg>