<svg width="160" height="160" viewBox="0 0 160 160" fill="none" xmlns="http://www.w3.org/2000/svg">
<path d="M64.7254 140.691C66.906 140.403 69.1088 140.994 70.8457 142.332L78.8516 148.475C81.4976 150.508 85.1789 150.508 87.8176 148.475L96.1262 142.096C97.6784 140.906 99.6371 140.381 101.574 140.64L111.967 142.007C115.271 142.443 118.457 140.602 119.736 137.52L123.735 127.851C124.482 126.04 125.916 124.606 127.727 123.859L137.395 119.859C140.478 118.588 142.319 115.395 141.882 112.09L140.567 102.074C140.278 99.8929 140.869 97.69 142.207 95.9528L148.35 87.9469C150.383 85.3002 150.383 81.619 148.35 78.9803L141.971 70.671C140.781 69.1187 140.256 67.1598 140.515 65.223L141.882 54.8294C142.319 51.525 140.478 48.3389 137.395 47.06L127.727 43.0608C125.916 42.3142 124.482 40.8801 123.735 39.0689L119.736 29.3998C118.465 26.3172 115.271 24.4765 111.967 24.9126L101.574 26.2802C99.6371 26.5463 97.6784 26.0214 96.1335 24.8387L87.8249 18.4591C85.1789 16.4262 81.4976 16.4262 78.8589 18.4591L70.5503 24.8387C68.9979 26.0214 67.0391 26.5463 65.1024 26.295L54.7093 24.9274C51.4051 24.4913 48.2193 26.332 46.9405 29.4146L42.9488 39.0837C42.1949 40.8875 40.7608 42.3216 38.9572 43.0756L29.2886 47.0674C26.2061 48.3463 24.3655 51.5324 24.8017 54.8368L26.1692 65.2304C26.4205 67.1672 25.8957 69.1261 24.713 70.671L18.3338 78.9803C16.301 81.6263 16.301 85.3082 18.3338 87.9469L24.713 96.2562C25.9031 97.8084 26.4279 99.7671 26.1692 101.704L24.8017 112.098C24.3655 115.402 26.2061 118.588 29.2886 119.867L38.9572 123.867C40.7682 124.613 42.2023 126.047 42.9488 127.858L46.9478 137.527C48.2193 140.61 51.4126 142.451 54.7167 142.015L64.7254 140.691Z" fill="#FFD4B8"/>
<path d="M57.5729 76.5328L70.8795 89.8394L100.819 59.8996M58.9162 133.757C61.0968 133.468 63.2996 134.06 65.0366 135.398L73.0425 141.541C75.6885 143.574 79.3697 143.574 82.0084 141.541L90.317 135.161C91.8692 133.971 93.828 133.446 95.7647 133.705L106.158 135.072C109.462 135.509 112.648 133.668 113.927 130.585L117.926 120.916C118.673 119.105 120.106 117.671 121.917 116.924L131.586 112.925C134.668 111.653 136.509 108.461 136.073 105.156L134.758 95.1394C134.469 92.9584 135.06 90.7555 136.398 89.0183L142.541 81.0124C144.574 78.3658 144.574 74.6845 142.541 72.0458L136.161 63.7365C134.972 62.1843 134.447 60.2253 134.706 58.2885L136.073 47.895C136.509 44.5905 134.668 41.4045 131.586 40.1256L121.917 36.1264C120.106 35.3797 118.673 33.9456 117.926 32.1345L113.927 22.4653C112.655 19.3827 109.462 17.542 106.158 17.9782L95.7647 19.3457C93.828 19.6119 91.8692 19.087 90.3243 17.9042L82.0157 11.5247C79.3697 9.49177 75.6885 9.49177 73.0498 11.5247L64.7412 17.9042C63.1888 19.087 61.2299 19.6119 59.2932 19.3606L48.9002 17.993C45.596 17.5568 42.4101 19.3975 41.1313 22.4801L37.1396 32.1492C36.3857 33.953 34.9516 35.3871 33.148 36.1411L23.4794 40.133C20.3969 41.4119 18.5564 44.5979 18.9925 47.9023L20.36 58.296C20.6113 60.2327 20.0865 62.1917 18.9038 63.7365L12.5246 72.0458C10.4918 74.6918 10.4918 78.3738 12.5246 81.0124L18.9038 89.3217C20.0939 90.8739 20.6187 92.8327 20.36 94.7694L18.9925 105.163C18.5564 108.468 20.3969 111.653 23.4794 112.933L33.148 116.932C34.959 117.679 36.3931 119.112 37.1396 120.923L41.1387 130.593C42.4101 133.676 45.6034 135.516 48.9076 135.08L58.9162 133.757Z" stroke="black" stroke-width="2" stroke-linecap="round" stroke-linejoin="round"/>
</svg>
