<svg width="64" height="64" viewBox="0 0 64 64" fill="none" xmlns="http://www.w3.org/2000/svg">
<rect width="64" height="64" rx="32" fill="#F3F3F3"/>
<g clip-path="url(#clip0_12432_2870)">
<path d="M35 24H25V40H39V28H35V24ZM23 22.992C23 22.444 23.447 22 23.999 22H36L41 27V40.993C41.0009 41.1243 40.976 41.2545 40.9266 41.3762C40.8772 41.4979 40.8043 41.6087 40.7121 41.7022C40.6199 41.7957 40.5101 41.8701 40.3892 41.9212C40.2682 41.9723 40.1383 41.9991 40.007 42H23.993C23.7304 41.9982 23.479 41.8931 23.2932 41.7075C23.1074 41.5219 23.0021 41.2706 23 41.008V22.992ZM33 32V36H31V32H28L32 28L36 32H33Z" fill="black"/>
</g>
<defs>
<clipPath id="clip0_12432_2870">
<rect width="24" height="24" fill="white" transform="translate(20 20)"/>
</clipPath>
</defs>
</svg>
