<svg width="280" height="260" viewBox="0 0 280 260" fill="none" xmlns="http://www.w3.org/2000/svg">
<circle cx="234.875" cy="206.811" r="38.9374" transform="rotate(30 234.875 206.811)" fill="#F03AF8"/>
<path d="M246.509 240.065C267.594 234.415 280.107 212.742 274.457 191.657C268.808 170.572 247.135 158.059 226.049 163.709C204.964 169.358 192.451 191.031 198.101 212.117C203.751 233.202 225.424 245.715 246.509 240.065Z" stroke="black" stroke-width="2" stroke-linecap="round" stroke-linejoin="round"/>
<path d="M216.564 236.034L255.994 167.738" stroke="black" stroke-width="2" stroke-linecap="round" stroke-linejoin="round"/>
<path d="M202.129 182.172L270.424 221.602" stroke="black" stroke-width="2" stroke-linecap="round" stroke-linejoin="round"/>
<path d="M216.515 236.116C216.583 236.155 216.651 236.188 216.719 236.227C208.371 222.513 207.573 204.786 216.166 189.902C224.759 175.018 239.644 167.312 255.229 167.215C236.448 156.941 212.808 163.487 202.048 182.124C191.288 200.76 197.61 225.201 216.515 236.116Z" stroke="black" stroke-width="2" stroke-linecap="round" stroke-linejoin="round"/>
<path d="M256.027 167.677C255.959 167.637 255.891 167.604 255.823 167.565C264.171 181.28 264.969 199.006 256.376 213.89C247.783 228.774 232.899 236.479 217.314 236.576C236.095 246.85 259.735 240.304 270.495 221.667C281.254 203.031 274.932 178.591 256.027 167.677Z" stroke="black" stroke-width="2" stroke-linecap="round" stroke-linejoin="round"/>
<path d="M243.141 189.994C253.161 195.779 264.661 196.677 274.882 193.428C272.585 182.952 266.058 173.442 256.037 167.657C246.017 161.871 234.517 160.973 224.296 164.222C226.595 174.698 233.122 184.209 243.141 189.994Z" stroke="black" stroke-width="2" stroke-linecap="round" stroke-linejoin="round"/>
<path d="M229.41 213.779C219.39 207.993 207.89 207.095 197.669 210.344C199.968 220.82 206.495 230.331 216.514 236.116C226.533 241.901 238.034 242.799 248.255 239.55C245.957 229.075 239.43 219.563 229.41 213.779Z" stroke="black" stroke-width="2" stroke-linecap="round" stroke-linejoin="round"/>
<path d="M108.962 221.683L110.151 221.683C110.151 215.448 115.206 210.393 121.441 210.393L121.441 209.204C115.206 209.204 110.151 204.149 110.151 197.913L108.962 197.913C108.962 204.149 103.907 209.204 97.6711 209.204L97.6711 210.393C103.907 210.393 108.962 215.448 108.962 221.683Z" fill="#FED731"/>
<rect x="6.67578" y="69.3213" width="69.9301" height="47.8198" rx="14" transform="rotate(-15 6.67578 69.3213)" fill="#FF5500"/>
<path d="M54.3436 50.7094L52.1234 42.4233C49.0578 30.9825 37.2981 24.1931 25.8574 27.2586C14.4167 30.3241 7.6272 42.0838 10.6927 53.5246L12.913 61.8107M38.6239 74.9038L40.8442 83.19M32.582 105.386L59.0976 98.2813C66.0587 96.4161 69.5389 95.4836 71.8349 93.4163C73.8544 91.5981 75.2462 89.1874 75.8111 86.5294C76.4534 83.5074 75.5209 80.0272 73.6556 73.066L72.1015 67.2657C70.2362 60.3045 69.3037 56.8244 67.2365 54.5284C65.4182 52.5089 63.0075 51.1171 60.3495 50.5522C57.3275 49.9099 53.8473 50.8424 46.8861 52.7076L20.3705 59.8125C13.4095 61.6777 9.929 62.6103 7.63328 64.6775C5.61384 66.4957 4.22186 68.9064 3.6569 71.5644C3.01468 74.5865 3.94719 78.0666 5.81243 85.0278L7.36662 90.8281C9.23186 97.7893 10.1644 101.269 12.2315 103.565C14.0498 105.585 16.4607 106.977 19.1187 107.542C22.1404 108.184 25.6209 107.251 32.582 105.386Z" stroke="black" stroke-width="2" stroke-linecap="round" stroke-linejoin="round"/>
<path d="M218.303 142.622L219.641 142.014C216.449 134.992 219.554 126.712 226.576 123.52L225.967 122.182C218.946 125.374 210.666 122.269 207.474 115.247L206.135 115.856C209.327 122.878 206.223 131.157 199.201 134.349L199.809 135.688C206.831 132.496 215.111 135.601 218.303 142.622Z" stroke="black" stroke-width="2" stroke-linecap="round" stroke-linejoin="round"/>
<path fill-rule="evenodd" clip-rule="evenodd" d="M96.0326 149.771L96.0302 149.797L94.7989 162.632C94.5697 165.02 94.372 167.08 94.3478 168.79C94.3223 170.596 94.4745 172.408 95.1835 174.206C96.2412 176.888 98.1209 179.167 100.553 180.715C102.184 181.753 103.934 182.247 105.711 182.565C107.395 182.867 109.455 183.064 111.843 183.293L164.745 188.368C167.133 188.597 169.193 188.795 170.903 188.819C172.708 188.845 174.521 188.693 176.319 187.984C179.001 186.926 181.279 185.046 182.828 182.614C183.866 180.984 184.36 179.233 184.678 177.456C184.979 175.773 185.177 173.712 185.406 171.324L188.308 141.074C188.537 138.686 188.735 136.626 188.759 134.916C188.784 133.111 188.632 131.298 187.923 129.5C186.865 126.818 184.986 124.539 182.554 122.991C180.923 121.953 179.173 121.459 177.395 121.141C175.712 120.84 173.652 120.642 171.263 120.413L167.465 120.049L168.569 108.541C168.734 106.815 168.887 105.224 168.893 103.918C168.899 102.563 168.77 100.842 167.863 99.2008C166.669 97.0446 164.653 95.4641 162.275 94.8206C160.464 94.331 158.762 94.6168 157.448 94.9463C156.181 95.2642 154.672 95.7924 153.036 96.3653L110.343 111.312C107.709 112.23 105.394 113.037 103.543 114.529C101.922 115.835 100.621 117.494 99.7402 119.38C98.7338 121.533 98.503 123.974 98.2404 126.751L96.0326 149.771ZM159.662 103.775C158.848 103.979 157.739 104.363 155.869 105.017L124.664 115.943L158.404 119.179L159.49 107.855C159.679 105.884 159.787 104.715 159.791 103.876L159.791 103.744L159.662 103.775ZM162.592 147.013C158.839 146.653 155.504 149.404 155.144 153.157C154.784 156.91 157.535 160.244 161.288 160.604C165.041 160.964 168.375 158.214 168.735 154.461C169.095 150.708 166.345 147.373 162.592 147.013Z" fill="#5AFECC"/>
<path d="M158.881 115.777L160.582 98.0422C160.987 93.8269 161.189 91.7192 160.426 90.3389C159.76 89.1329 158.633 88.249 157.305 87.8893C155.784 87.4775 153.787 88.1773 149.795 89.5771L102.901 106.018C99.341 107.267 97.5608 107.891 96.195 108.993C94.9877 109.967 94.0186 111.205 93.362 112.611C92.6194 114.202 92.439 116.081 92.0784 119.841L89.6705 144.941M91.5181 125.682L88.3092 159.131C87.7646 164.808 87.4923 167.647 88.3878 169.921C89.1754 171.921 90.5754 173.62 92.3872 174.775C94.4469 176.087 97.2819 176.359 102.952 176.903L161.672 182.536C167.342 183.08 170.177 183.352 172.449 182.455C174.447 181.666 176.145 180.264 177.298 178.45C178.61 176.388 178.882 173.549 179.427 167.872L182.636 134.423C183.18 128.746 183.452 125.908 182.557 123.634C181.769 121.634 180.369 119.934 178.558 118.78C176.498 117.467 173.663 117.195 167.993 116.651L109.273 111.018C103.602 110.474 100.767 110.202 98.4958 111.099C96.4976 111.888 94.8 113.29 93.6464 115.104C92.3349 117.167 92.0626 120.005 91.5181 125.682Z" stroke="black" stroke-width="2" stroke-linecap="round" stroke-linejoin="round"/>
<circle cx="157.984" cy="149.727" r="6.92287" transform="rotate(5.47976 157.984 149.727)" stroke="black" stroke-width="2" stroke-linecap="round" stroke-linejoin="round"/>
<rect x="162.877" y="200.221" width="14.8332" height="14.8332" rx="4" transform="rotate(-13.3781 162.877 200.221)" stroke="black" stroke-width="2" stroke-linecap="round" stroke-linejoin="round"/>
<path d="M136.9 247.142C78.2746 247.142 30.7493 199.617 30.7493 140.992M136.9 34.8408C195.525 34.8408 243.051 82.3661 243.051 140.992" stroke="black" stroke-width="2"/>
<path d="M128.44 74.0837H123.03L128.028 72.0132L126.861 69.1959L121.862 71.2663L125.689 67.4409L123.532 65.2836L119.706 69.1099L121.777 64.1111L118.959 62.9445L116.889 67.9424V62.5322H113.839V67.9424L111.768 62.9445L108.951 64.1111L111.021 69.1099L107.196 65.2836L105.039 67.4409L108.865 71.2663L103.866 69.1959L102.699 72.0132L107.697 74.0837H102.287V77.1339H107.697L102.699 79.2043L103.866 82.0216L108.865 79.9512L105.039 83.7766L107.196 85.9339L111.021 82.1076L108.951 87.1064L111.768 88.2731L113.839 83.2751V88.6853H116.889V83.2751L118.959 88.2731L121.777 87.1064L119.706 82.1076L123.532 85.9339L125.689 83.7766L121.862 79.9512L126.861 82.0216L128.028 79.2043L123.03 77.1339H128.44V74.0837Z" fill="#F39FC1"/>
</svg>
