<svg width="140" height="141" viewBox="0 0 140 141" fill="none" xmlns="http://www.w3.org/2000/svg">
<path d="M54.2879 131.691C56.4685 131.403 58.6713 131.994 60.4082 133.332L68.4141 139.475C71.0601 141.508 74.7414 141.508 77.3801 139.475L85.6887 133.096C87.2409 131.906 89.1996 131.381 91.1364 131.64L101.529 133.007C104.834 133.443 108.02 131.602 109.299 128.52L113.298 118.851C114.044 117.04 115.478 115.606 117.289 114.859L126.958 110.859C130.04 109.588 131.881 106.395 131.445 103.09L130.129 93.0738C129.841 90.8929 130.432 88.69 131.77 86.9528L137.913 78.9469C139.946 76.3002 139.946 72.619 137.913 69.9803L131.533 61.671C130.344 60.1187 129.819 58.1598 130.077 56.223L131.445 45.8294C131.881 42.525 130.04 39.3389 126.958 38.06L117.289 34.0608C115.478 33.3142 114.044 31.8801 113.298 30.0689L109.299 20.3998C108.027 17.3172 104.834 15.4765 101.529 15.9126L91.1364 17.2802C89.1996 17.5463 87.2409 17.0214 85.696 15.8387L77.3874 9.45913C74.7414 7.42622 71.0601 7.42622 68.4214 9.45913L60.1128 15.8387C58.5604 17.0214 56.6016 17.5463 54.6649 17.295L44.2718 15.9274C40.9676 15.4913 37.7818 17.332 36.503 20.4146L32.5113 30.0837C31.7574 31.8875 30.3233 33.3216 28.5197 34.0756L18.8511 38.0674C15.7686 39.3463 13.928 42.5324 14.3642 45.8368L15.7317 56.2304C15.983 58.1672 15.4582 60.1261 14.2755 61.671L7.89626 69.9803C5.86348 72.6263 5.86348 76.3082 7.89626 78.9469L14.2755 87.2562C15.4656 88.8084 15.9904 90.7671 15.7317 92.7039L14.3642 103.098C13.928 106.402 15.7686 109.588 18.8511 110.867L28.5197 114.867C30.3307 115.613 31.7648 117.047 32.5113 118.858L36.5103 128.527C37.7818 131.61 40.9751 133.451 44.2792 133.015L54.2879 131.691Z" fill="#FED731"/>
<path d="M48.9162 124.757C51.0968 124.468 53.2996 125.06 55.0366 126.398L63.0425 132.541C65.6885 134.574 69.3697 134.574 72.0084 132.541L80.317 126.161C81.8692 124.971 83.828 124.446 85.7647 124.705L96.1578 126.072C99.4618 126.509 102.648 124.668 103.927 121.585L107.926 111.916C108.673 110.105 110.106 108.671 111.917 107.924L121.586 103.925C124.668 102.653 126.509 99.4605 126.073 96.1559L124.758 86.1394C124.469 83.9584 125.06 81.7555 126.398 80.0183L132.541 72.0125C134.574 69.3658 134.574 65.6845 132.541 63.0458L126.161 54.7365C124.972 53.1843 124.447 51.2253 124.706 49.2885L126.073 38.895C126.509 35.5905 124.668 32.4045 121.586 31.1256L111.917 27.1264C110.106 26.3797 108.673 24.9456 107.926 23.1345L103.927 13.4653C102.655 10.3827 99.4618 8.54204 96.1578 8.97816L85.7647 10.3457C83.828 10.6119 81.8692 10.087 80.3243 8.90424L72.0157 2.52468C69.3697 0.491773 65.6885 0.491773 63.0498 2.52468L54.7412 8.90424C53.1888 10.087 51.2299 10.6119 49.2932 10.3606L38.9002 8.993C35.596 8.55681 32.4101 10.3975 31.1313 13.4801L27.1396 23.1492C26.3857 24.953 24.9516 26.3871 23.148 27.1411L13.4794 31.133C10.3969 32.4119 8.55638 35.5979 8.9925 38.9023L10.36 49.296C10.6113 51.2327 10.0865 53.1917 8.90381 54.7365L2.52458 63.0458C0.491806 65.6918 0.491806 69.3738 2.52458 72.0125L8.90381 80.3217C10.0939 81.8739 10.6187 83.8327 10.36 85.7694L8.9925 96.1632C8.55638 99.4679 10.3969 102.653 13.4794 103.933L23.148 107.932C24.959 108.679 26.3931 110.112 27.1396 111.923L31.1387 121.593C32.4101 124.676 35.6034 126.516 38.9076 126.08L48.9162 124.757Z" stroke="black" stroke-width="2" stroke-linecap="round" stroke-linejoin="round"/>
</svg>
