<svg width="80" height="80" viewBox="0 0 80 80" fill="none" xmlns="http://www.w3.org/2000/svg">
<rect width="80" height="80" fill="white"/>
<mask id="mask0_14119_3730" style="mask-type:alpha" maskUnits="userSpaceOnUse" x="20" y="24" width="40" height="33">
<path d="M47.5 24C54.3917 24 60 29.6947 60 36.6924V44.3076H50V36.6924C50 35.2935 48.8778 34.1538 47.5 34.1538C46.1222 34.1538 45 35.2935 45 36.6924V57H35V36.6924C35 35.2935 33.8778 34.1538 32.5 34.1538C31.1222 34.1538 30 35.2935 30 36.6924V57H20V36.6924C20 29.6947 25.6083 24 32.5 24C35.3115 24 37.9093 24.9478 40 26.5451C42.0907 24.9478 44.6885 24 47.5 24Z" fill="#634CFF"/>
<path d="M55 46.8462C57.761 46.8462 59.9998 49.1193 60 51.9227C60 54.7263 57.7611 57 55 57C52.2389 57 50 54.7263 50 51.9227C50.0002 49.1193 52.239 46.8462 55 46.8462Z" fill="#634CFF"/>
</mask>
<g mask="url(#mask0_14119_3730)">
<path d="M38.231 -5L39.4534 -3.77754L-5.77754 41.4534L-7 40.231L38.231 -5Z" fill="#634CFF"/>
<path d="M41.6886 -2.40706L42.9111 -1.1846L-2.31992 44.0464L-3.54238 42.8239L41.6886 -2.40706Z" fill="#634CFF"/>
<path d="M46.3687 1.40902L45.1462 0.186557L-0.0847588 45.4175L1.1377 46.64L46.3687 1.40902Z" fill="#634CFF"/>
<path d="M48.6038 2.7795L49.8263 4.00196L4.59532 49.2329L3.37286 48.0105L48.6038 2.7795Z" fill="#634CFF"/>
<path d="M53.284 6.59557L52.0615 5.37311L6.83057 50.6041L8.05303 51.8266L53.284 6.59557Z" fill="#634CFF"/>
<path d="M55.5192 7.96606L56.7416 9.18852L11.5106 54.4195L10.2882 53.197L55.5192 7.96606Z" fill="#634CFF"/>
<path d="M60.1993 11.7821L58.9768 10.5597L13.7458 55.7907L14.9683 57.0131L60.1993 11.7821Z" fill="#634CFF"/>
<path d="M62.4344 13.1526L63.6569 14.3751L18.4259 59.6061L17.2034 58.3836L62.4344 13.1526Z" fill="#634CFF"/>
<path d="M67.1145 16.968L65.892 15.7456L20.661 60.9765L21.8835 62.199L67.1145 16.968Z" fill="#634CFF"/>
<path d="M69.3497 18.3392L70.5721 19.5616L25.3411 64.7926L24.1187 63.5702L69.3497 18.3392Z" fill="#634CFF"/>
<path d="M74.0298 22.1546L72.8074 20.9321L27.5764 66.1631L28.7988 67.3856L74.0298 22.1546Z" fill="#634CFF"/>
<path d="M76.265 23.5257L77.4874 24.7482L32.2565 69.9792L31.034 68.7567L76.265 23.5257Z" fill="#634CFF"/>
<path d="M80.9451 27.3411L79.7226 26.1187L34.4916 71.3497L35.7141 72.5721L80.9451 27.3411Z" fill="#634CFF"/>
<path d="M83.1802 28.7123L84.4027 29.9347L39.1717 75.1657L37.9492 73.9433L83.1802 28.7123Z" fill="#634CFF"/>
<path d="M87.8603 32.5277L86.6378 31.3052L41.4069 76.5362L42.6293 77.7587L87.8603 32.5277Z" fill="#634CFF"/>
</g>
</svg>
