<svg width="128" height="128" viewBox="0 0 128 128" fill="none" xmlns="http://www.w3.org/2000/svg">
<g clip-path="url(#clip0_14523_11054)">
<g clip-path="url(#clip1_14523_11054)">
<path d="M88.2746 74.7564C83.8351 74.7564 80.2354 78.4305 80.2354 82.9616C80.2354 87.4926 83.8351 91.1667 88.2746 91.1667C92.714 91.1667 96.3138 87.4926 96.3138 82.9616C96.3138 78.4305 92.714 74.7564 88.2746 74.7564Z" fill="white"/>
<path d="M48.0784 91.1667H32V58.3462C32 47.0368 41.0173 37.8333 52.098 37.8333C63.1788 37.8333 72.1961 47.0368 72.1961 58.3462V70.6539H56.1176V58.3462C56.1176 56.0852 54.3133 54.2436 52.098 54.2436C49.8828 54.2436 48.0784 56.0852 48.0784 58.3462V91.1667Z" fill="white"/>
<path d="M72.1959 91.1667H56.1174V58.3462C56.1174 47.0368 65.1348 37.8333 76.2155 37.8333C87.2962 37.8333 96.3135 47.0368 96.3135 58.3462V70.6539H80.2351V58.3462C80.2351 56.0852 78.4307 54.2436 76.2155 54.2436C74.0002 54.2436 72.1959 56.0852 72.1959 58.3462V91.1667Z" fill="white"/>
</g>
</g>
<defs>
<clipPath id="clip0_14523_11054">
<rect width="64" height="64" fill="white" transform="translate(32 32.5)"/>
</clipPath>
<clipPath id="clip1_14523_11054">
<rect width="64.3137" height="53.3333" fill="white" transform="translate(32 37.8333)"/>
</clipPath>
</defs>
</svg>
